<svg xmlns="http://www.w3.org/2000/svg" viewBox="0 0 33.39 162.05"><defs><style>.cls-1{fill:#806543;}</style></defs><g id="Lag_2" data-name="Lag 2"><g id="Lag_1-2" data-name="Lag 1"><path class="cls-1" d="M18.11,0H30.42V130.84q0,10.65,3,15.18l-7.13,16q-4.85-2.27-6.66-11-2.88,7-4.51,9a4.56,4.56,0,0,1-3.43,2q-4.36,0-7.3-7.3Q0,143.8,0,114.9V92.81Q0,61.25,6.4,46.55,10.81,36.4,18.11,35.7Zm0,58.39c-1.56.72-2.75,2.46-3.59,5.23q-2.2,7.09-2.21,23.07v25.65q0,22.78,1.7,28.6c.55,1.78,1.24,2.66,2.08,2.66a1.78,1.78,0,0,0,1.26-.54,2.79,2.79,0,0,0,.76-1.13Z"/></g></g></svg>