<svg xmlns="http://www.w3.org/2000/svg" viewBox="0 0 117.08 102.68"><defs><style>.cls-1,.cls-2,.cls-3,.cls-4{fill:none;stroke-miterlimit:10;}.cls-1,.cls-3{stroke:#d37983;}.cls-1{stroke-width:5px;}.cls-2{stroke:#30809c;}.cls-2,.cls-4{stroke-width:3px;}.cls-3{stroke-width:2px;}.cls-4{stroke:#862e38;}</style></defs><g id="Lag_2" data-name="Lag 2"><g id="Lag_1-2" data-name="Lag 1"><g id="Lag_1-2-2" data-name="Lag 1-2"><path class="cls-1" d="M2.5,49.9A107.21,107.21,0,0,1,3.58,34.66a43.69,43.69,0,0,1,5-15.36A40,40,0,0,1,18.7,7.42,23.59,23.59,0,0,1,33.82,2.5c9,0,18,.36,26.88,1A133.4,133.4,0,0,1,86.5,7.9c8.16,2.28,15,5.88,20.28,10.8s7.92,12,7.8,21.24c0,15.84-6.72,29.76-20.28,42S64.3,100.18,45,100.18c-15,0-25.8-5-32.52-15.24S2.5,63,2.5,49.9Z"/><path class="cls-2" d="M75.58,20.86c2.52,2.52,3.84,7.32,3,9.36s-4.2,6.36-6.48,6.12-6.72-4.8-6.12-7.68,1.08-3.6,2.88-4.68A52.85,52.85,0,0,1,75.58,20.86Z"/><path class="cls-2" d="M30.82,25.42c1.56,1.32,3.84,3.36,4.56,5.28s1,4.68-.84,5.52-5,1.56-6.12,1.2-4.68-2.28-5.28-4.32-.12-5.4,1.44-5.88S30.82,25.42,30.82,25.42Z"/><path class="cls-3" d="M58.18,45.94c1.68.84,1.92,4.08.84,5s-1.56,4.68-4.56,4-9.24-4.68-8.88-6.6,2.52-5,4.08-5.16"/><path class="cls-4" d="M70.9,46.42c1.56,1.32,5.16,6.84,5.28,9.12s-3,18.24-6.36,21.36-9.12,4.8-12.36,4.44a28.34,28.34,0,0,1-11.88-5c-2.88-2.4-7.92-15-9-17.28s-2.76-4.92-1.92-7.08"/></g></g></g></svg>