<svg xmlns="http://www.w3.org/2000/svg" viewBox="0 0 2074.7 2074.7"><defs><style>.cls-1{fill:none;}.cls-2{fill:#fbf0d2;}.cls-3{fill:#5c9db5;}</style></defs><g id="Lag_2" data-name="Lag 2"><g id="Lag_1-2" data-name="Lag 1"><rect class="cls-1" width="2074.7" height="2074.7"/><path class="cls-2" d="M312.38,750.88v-45a6.33,6.33,0,0,0,.91-2.22c-.15-9,1.28-17.86,2-26.78,1.36-17.9,4.59-35.48,8.16-53a518.36,518.36,0,0,1,37.75-114.29,579.28,579.28,0,0,1,49.15-86.16,586.08,586.08,0,0,1,55.41-69.08,665.63,665.63,0,0,1,57.35-54.79,738.64,738.64,0,0,1,61.44-46.66,757.49,757.49,0,0,1,129.33-69.8A801.57,801.57,0,0,1,820,146.88a786.37,786.37,0,0,1,109.78-21.14c23.55-2.77,47.1-5.33,70.83-5.83,1.61,0,3.37.45,4.72-1h64c1,1.15,2.41.94,3.73,1,6.8.17,13.59.4,20.4.83,20,1.24,39.91,3.55,59.82,6a708.08,708.08,0,0,1,71.42,12.65,817.24,817.24,0,0,1,134.73,43,747.75,747.75,0,0,1,114,59.43c46.46,29.76,89.39,63.89,127.42,104.07,14.63,15.46,28.72,31.33,41.87,48.05a575.51,575.51,0,0,1,64.15,101.38q12.15,24.61,21.81,50.33a538.14,538.14,0,0,1,31.42,132.86c2.1,19.51,2.13,39.14,2.24,58.76.09,17.55-2.36,34.79-5.58,51.86-5.74,30.38-14.28,60-24.45,89.28-15,43.11-32.94,85-52.56,126.1-21.57,45.23-44.91,89.58-69.55,133.22q-32.12,56.91-66.33,112.57-31.45,50.9-64.17,101c-18.14,27.67-36.34,55.3-54.89,82.71q-30.72,45.43-62.24,90.32-49,70-99.78,138.74-49.68,67.64-100.66,134.28-28.72,37.58-57.86,74.83c-15.43,19.74-31.26,39.16-46.67,58.91-6.43,8.23-13.78,15.74-19.3,24.67h-1c-7.72-9.55-15.52-19-23.15-28.64-20.52-25.87-41.14-51.67-61.4-77.75s-40.18-52.41-60.15-78.72c-19.17-25.25-38.38-50.48-57.26-76q-33.21-44.84-65.9-90c-23.11-32.08-46.1-64.23-68.61-96.74-15.42-22.27-30.65-44.68-46-67-26.24-38-51.54-76.72-76.56-115.58-15.84-24.6-31.33-49.42-46.7-74.32q-32.34-52.42-62.66-106.06c-17-30-33.49-60.19-49.22-90.81-19.47-37.9-37.74-76.38-54.07-115.76C350.07,901,335.92,863.23,326,824c-5.19-20.41-10.07-40.88-11.82-62C313.83,758.35,314.38,754.34,312.38,750.88Zm1035.94,399.41a156.5,156.5,0,0,0-3.59-34.18c-6.34-31-20.6-58.61-36.46-85.48-42.58-72.13-101.28-127.77-173.92-169-27.77-15.74-57.52-25.36-89.59-26.62-32.84-1.28-63.84,6.45-92.94,21.25a446.69,446.69,0,0,0-124,93.2,453.69,453.69,0,0,0-80.16,117.55c-14.23,30.15-23.35,61.73-21.27,95.49,1.56,25.28,13.14,45.08,36.32,56.33,30.57,14.82,63,16.35,95.6,9.11,35.41-7.85,70-18.74,104.37-30.5,44.39-15.2,89.21-17.94,134.33-3.62,21.71,6.9,42.76,15.76,64.5,22.66,32.8,10.42,65.6,20,100.75,14.39,13.8-2.2,27.74-3.48,41-8.22,16.78-6,30.52-15.6,38-32.4C1347.05,1177.57,1348.64,1164.08,1348.32,1150.29Zm-338.8-561.55c-.38-5.47-.64-11-1.16-16.42-3-31.65-11-61.9-26.3-89.9-14.48-26.41-33.32-49.24-59.15-65.12-27.38-16.84-56.79-21.62-87.39-9.2-23.85,9.69-39.9,28-51.2,50.44-13.39,26.63-18,55.13-16.11,84.77,2.17,33.48,10.14,65.41,26.29,95,14.59,26.71,33.77,49.5,59.59,66.12C896.93,732,958.37,723.1,986.8,673.15A171,171,0,0,0,1009.52,588.74Zm297.8-53.32c-.35-5.16-.67-10.14-1-15.12-1.83-25.42-8.24-49.53-20.9-71.76-23.6-41.43-66.8-53-104.37-44-24.25,5.77-42.94,20.43-59.55,38.35-21.37,23-36.58,49.64-44.81,79.82-8.1,29.71-14.65,59.71-8.52,91,4.22,21.52,8.95,42.75,20.9,61.5,21.46,33.67,52.52,47.84,91.88,43.75,23.68-2.46,43.07-14.36,60-30.27C1285.21,647.17,1305.22,595.08,1307.32,535.42ZM1487.4,774.08a153.17,153.17,0,0,0-9.35-52.87c-6.84-18.91-16.87-35.86-35-45.8-31.56-17.28-63.81-16-94.26,1.86-45.9,26.89-75.22,67.16-89.51,118.38-4.62,16.55-8.48,33.44-8.59,50.53-.18,25.8,5.66,50.52,19.3,72.88,11.13,18.25,27.1,30,48.11,34.4a98.52,98.52,0,0,0,59.7-5.51c26.94-11.33,48.43-29.89,65.7-53C1470.18,859.17,1486.06,819.18,1487.4,774.08Zm-900-3.63c-.38,6.56.51,13,1.26,19.46a208.57,208.57,0,0,0,44,106.54c24.5,31.16,54,54.22,94.86,58.79,28,3.13,52-4.92,70.36-27.1a92.67,92.67,0,0,0,19.55-39.47c3.13-14.18,9.59-27.89,6.66-43.11-.91-4.69-.42-9.64-1-14.41-7-54.32-29.87-100.38-71.52-136.47-21.79-18.88-46.88-30.2-76.12-30.89-23.06-.54-42.79,7.35-58.33,24.54C596,711.61,588.27,739.83,587.4,770.45Z"/><path class="cls-3" d="M1348.33,1150.29c.31,13.79-1.28,27.28-7,40-7.53,16.8-21.27,26.42-38,32.4-13.26,4.74-27.2,6-41,8.22-35.15,5.6-68-4-100.75-14.39-21.74-6.9-42.79-15.76-64.5-22.66-45.12-14.32-89.94-11.58-134.33,3.62-34.33,11.76-69,22.65-104.37,30.5-32.59,7.24-65,5.71-95.6-9.11-23.18-11.25-34.76-31-36.32-56.33-2.08-33.76,7-65.34,21.27-95.49A453.69,453.69,0,0,1,827.86,949.5a446.69,446.69,0,0,1,124-93.2c29.1-14.8,60.1-22.53,92.94-21.25,32.07,1.26,61.82,10.88,89.59,26.62,72.64,41.19,131.34,96.83,173.92,169,15.86,26.87,30.12,54.5,36.46,85.48A157.12,157.12,0,0,1,1348.33,1150.29Z"/><path class="cls-3" d="M1009.52,588.74a171,171,0,0,1-22.72,84.41c-28.43,50-89.87,58.82-132.71,31.25-25.82-16.62-45-39.41-59.59-66.12-16.15-29.56-24.12-61.49-26.29-95-1.92-29.64,2.72-58.14,16.11-84.77,11.3-22.47,27.35-40.75,51.2-50.44,30.6-12.42,60-7.64,87.39,9.2,25.83,15.88,44.67,38.71,59.15,65.12,15.35,28,23.3,58.25,26.3,89.9C1008.88,577.78,1009.14,583.27,1009.52,588.74Z"/><path class="cls-3" d="M1307.32,535.42c-2.1,59.66-22.11,111.75-66.36,153.25-17,15.91-36.36,27.81-60,30.27-39.36,4.09-70.42-10.08-91.88-43.75-12-18.75-16.68-40-20.9-61.5-6.13-31.3.42-61.3,8.52-91,8.23-30.18,23.44-56.78,44.81-79.82,16.61-17.92,35.3-32.58,59.55-38.35,37.57-8.94,80.77,2.6,104.37,44,12.66,22.23,19.07,46.34,20.9,71.76C1306.65,525.28,1307,530.26,1307.32,535.42Z"/><path class="cls-3" d="M1487.4,774.08c-1.34,45.1-17.22,85.09-43.93,120.86-17.27,23.12-38.76,41.68-65.7,53a98.52,98.52,0,0,1-59.7,5.51c-21-4.42-37-16.15-48.11-34.4-13.64-22.36-19.48-47.08-19.3-72.88.11-17.09,4-34,8.59-50.53,14.29-51.22,43.61-91.49,89.51-118.38,30.45-17.84,62.7-19.14,94.26-1.86,18.16,9.94,28.19,26.89,35,45.8A153.17,153.17,0,0,1,1487.4,774.08Z"/><path class="cls-3" d="M587.4,770.45c.87-30.62,8.64-58.84,29.69-82.12,15.54-17.19,35.27-25.08,58.33-24.54,29.24.69,54.33,12,76.12,30.89,41.65,36.09,64.54,82.15,71.52,136.47.61,4.77.12,9.72,1,14.41,2.93,15.22-3.53,28.93-6.66,43.11a92.67,92.67,0,0,1-19.55,39.47c-18.37,22.18-42.35,30.23-70.36,27.1-40.84-4.57-70.36-27.63-94.86-58.79a208.57,208.57,0,0,1-44-106.54C587.91,783.48,587,777,587.4,770.45Z"/></g></g></svg>