<?xml version="1.0" encoding="UTF-8"?>
<svg id="Layer_1" xmlns="http://www.w3.org/2000/svg" version="1.1" viewBox="0 0 239 300.3">
  <!-- Generator: Adobe Illustrator 29.0.0, SVG Export Plug-In . SVG Version: 2.1.0 Build 186)  -->
  <defs>
    <style>
      .st0 {
        fill: #a6607c;
      }
    </style>
  </defs>
  <g id="Lag_1">
    <path class="st0" d="M195,50.2c-5.4,13.1-20.4,19.4-33.5,14-13.1-5.4-19.4-20.4-14-33.5,5.4-13.1,20.4-19.4,33.5-14h.1c13,5.4,19.3,20.4,13.9,33.5Z"/>
    <path class="st0" d="M175.1,239.4c-3.8,27.5-29.2,46.8-56.7,43s-46.8-29.2-43-56.7,29.2-46.8,56.7-43h0c27.5,3.7,46.8,29.1,43,56.7Z"/>
    <path class="st0" d="M124.6,118.2c-2.7,19.4-20.6,33-40,30.3s-33-20.6-30.3-40,20.6-32.9,40-30.3c19.4,2.7,33,20.6,30.3,40h0Z"/>
  </g>
</svg>