<?xml version="1.0" encoding="utf-8"?>
<!-- Generator: Adobe Illustrator 25.0.0, SVG Export Plug-In . SVG Version: 6.00 Build 0)  -->
<svg version="1.1" id="Lag_1" xmlns="http://www.w3.org/2000/svg" xmlns:xlink="http://www.w3.org/1999/xlink" x="0px" y="0px"
	 viewBox="0 0 209.4 311.3" style="enable-background:new 0 0 209.4 311.3;" xml:space="preserve">
<style type="text/css">
	.st0{opacity:0.3;fill:#806543;enable-background:new    ;}
</style>
<g id="graphics">
	<path id="martiniglass" class="st0" d="M204.6,309.8c1.9,0,3.4-1.5,3.3-3.4c0-0.9-0.4-1.7-1-2.4l-95.1-95V18.2l55.6-11.5
		c1.8-0.3,3.1-2.1,2.7-3.9c-0.3-1.6-1.7-2.8-3.3-2.8H42.4c-1.9,0-3.4,1.5-3.3,3.4c0,1.6,1.2,3,2.8,3.3l55.6,11.5V209l-95,95
		c-1.3,1.3-1.3,3.4,0,4.7c0.6,0.6,1.5,1,2.4,1L204.6,309.8L204.6,309.8z"/>
</g>
</svg>
