<?xml version="1.0" encoding="UTF-8"?>
<svg id="Layer_2" data-name="Layer 2" xmlns="http://www.w3.org/2000/svg" viewBox="0 0 604.1 61.78">
  <defs>
    <style>
      .cls-1 {
        fill: #b19f9d;
      }
    </style>
  </defs>
  <g id="Lag_1" data-name="Lag 1">
    <g>
      <path class="cls-1" d="M6.97.52c2.56-.12,5.07-.17,7.54-.17s5.08.26,7.84.78c2.76.52,5.49,1.49,8.19,2.92s5,3.25,6.88,5.49c1.89,2.23,3.41,5.18,4.57,8.84s1.74,8.1,1.74,13.33-.86,9.92-2.57,14.07c-1.71,4.15-4.05,7.33-7.01,9.54-5.75,4.3-12.69,6.45-20.83,6.45-2.85,0-5.84-.12-8.97-.35H0V.52h6.97ZM7.23,60.73c1.22.12,2.76.17,4.62.17s3.25-.03,4.18-.09c.93-.06,2.21-.3,3.83-.74,1.63-.43,3.14-1.03,4.53-1.78,1.39-.76,2.86-1.88,4.4-3.36,1.54-1.48,2.86-3.24,3.96-5.27,2.5-4.77,3.75-10.98,3.75-18.65,0-5.46-.67-10.18-2-14.16-1.34-3.98-2.86-6.93-4.57-8.84-1.71-1.92-3.79-3.44-6.23-4.58-2.44-1.13-4.39-1.79-5.84-1.96s-3.14-.26-5.05-.26-3.78.09-5.58.26v59.25Z"/>
      <path class="cls-1" d="M91.23.43v.87h-27.45v26.14h25.44v.87h-25.44v32.24h29.36v.87h-36.6V.43h34.68Z"/>
      <path class="cls-1" d="M137.67,4.1c-5.29-2.03-10.27-3.05-14.94-3.05s-8.32.99-10.94,2.96c-2.61,1.98-3.92,4.71-3.92,8.19,0,4.24,2.21,7.52,6.62,9.85,1.97.99,4.14,1.9,6.49,2.75s4.72,1.79,7.1,2.83c2.38,1.04,4.56,2.23,6.54,3.57,1.97,1.34,3.57,3.18,4.79,5.53,1.22,2.35,1.83,5.35,1.83,8.98s-1.02,6.72-3.05,9.28c-2.03,2.56-4.49,4.29-7.36,5.18-2.88.9-6.23,1.35-10.06,1.35-7.15,0-13.24-1.77-18.3-5.32l.44-.7c1.92,1.51,4.4,2.75,7.45,3.7,3.05.96,6.17,1.44,9.37,1.44,4.71,0,8.73-1.09,12.07-3.27,3.34-2.18,5.01-5.39,5.01-9.63,0-4.65-2.21-8.28-6.62-10.89-1.97-1.16-4.14-2.23-6.49-3.22-2.35-.99-4.72-2.02-7.1-3.09-2.38-1.07-4.56-2.28-6.53-3.62-4.42-2.9-6.62-7.03-6.62-12.37,0-4.24,1.42-7.68,4.27-10.32,2.85-2.64,7.13-3.96,12.85-3.96s11.55.99,17.47,2.96l-.35.87Z"/>
      <path class="cls-1" d="M153.62,1.31V.43h15.51v.87h-4.27v59.25h4.27v.87h-15.51v-.87h4.01V1.31h-4.01Z"/>
      <path class="cls-1" d="M212.35,61.78c-10.86,0-18.91-3.08-24.14-9.24-1.86-2.21-3.37-5.14-4.53-8.8-1.16-3.66-1.74-8.1-1.74-13.33s.86-9.92,2.57-14.07c1.71-4.15,4.05-7.36,7.01-9.63,5.75-4.24,12.69-6.36,20.83-6.36,2.61,0,5.17.19,7.67.56,2.5.38,4.36.77,5.58,1.18l1.83.61-.26.87c-4.53-1.57-9.47-2.35-14.81-2.35-6.16,0-11.3,2-15.42,6.01-3.14,2.96-5.35,7.32-6.62,13.07-.75,3.26-1.13,7.23-1.13,11.94s.67,9.05,2,13.03c1.34,3.98,2.86,6.93,4.57,8.85,1.71,1.92,3.79,3.44,6.23,4.57,2.44,1.13,4.39,1.79,5.84,1.96,1.45.17,3.18.26,5.18.26s4.69-.23,8.06-.7v-17.95h-10.54v-.87h21.52v.87h-3.75v17.17c-4.42,1.57-9.73,2.35-15.95,2.35Z"/>
      <path class="cls-1" d="M244.15,61.43h-1.13V.43h2.96l36.25,56.38V.43h1.13v61h-6.36l-32.85-50.54v50.54Z"/>
      <path class="cls-1" d="M333.03.43v.87h-27.45v26.14h25.44v.87h-25.44v32.24h29.36v.87h-36.6V.43h34.68Z"/>
      <path class="cls-1" d="M347.32,1.13c6.74-.47,12.69-.7,17.86-.7,14.35,0,21.52,4.79,21.52,14.38,0,4.07-.99,7.7-2.96,10.89-1.97,3.2-5.37,5.32-10.19,6.36l17.43,29.36h-8.1l-17.08-28.84h-11.24v28.84h-7.23V1.13ZM365.18,1.31c-3.37,0-6.91.2-10.63.61v29.8h12.9c8.19-.35,12.29-5.92,12.29-16.73,0-4.42-1.22-7.8-3.66-10.15-2.44-2.35-6.07-3.53-10.89-3.53Z"/>
      <path class="cls-1" d="M435.06,4.1c-5.29-2.03-10.27-3.05-14.94-3.05s-8.32.99-10.94,2.96c-2.61,1.98-3.92,4.71-3.92,8.19,0,4.24,2.21,7.52,6.62,9.85,1.97.99,4.14,1.9,6.49,2.75s4.72,1.79,7.1,2.83c2.38,1.04,4.56,2.23,6.54,3.57,1.97,1.34,3.57,3.18,4.79,5.53,1.22,2.35,1.83,5.35,1.83,8.98s-1.02,6.72-3.05,9.28c-2.03,2.56-4.49,4.29-7.36,5.18-2.88.9-6.23,1.35-10.06,1.35-7.15,0-13.24-1.77-18.3-5.32l.44-.7c1.92,1.51,4.4,2.75,7.45,3.7,3.05.96,6.17,1.44,9.37,1.44,4.71,0,8.73-1.09,12.07-3.27,3.34-2.18,5.01-5.39,5.01-9.63,0-4.65-2.21-8.28-6.62-10.89-1.97-1.16-4.14-2.23-6.49-3.22-2.35-.99-4.72-2.02-7.1-3.09-2.38-1.07-4.56-2.28-6.53-3.62-4.42-2.9-6.62-7.03-6.62-12.37,0-4.24,1.42-7.68,4.27-10.32,2.85-2.64,7.13-3.96,12.85-3.96s11.55.99,17.47,2.96l-.35.87Z"/>
      <path class="cls-1" d="M451.01,1.13c6.74-.47,12.69-.7,17.86-.7,14.35,0,21.52,4.79,21.52,14.38,0,3.6-1.05,6.7-3.14,9.28s-5.43,4.34-10.02,5.27c4.41.52,7.9,1.86,10.46,4.01,2.56,2.15,3.83,5.9,3.83,11.24,0,11.21-7.17,16.82-21.52,16.82h-18.99V1.13ZM468.87,1.31c-3.37,0-6.91.2-10.63.61v27.19h12.9c8.19-.35,12.29-5.06,12.29-14.12,0-4.42-1.22-7.8-3.66-10.15-2.44-2.35-6.07-3.53-10.89-3.53ZM458.24,60.56h11.76c5.17,0,8.84-1.35,11.02-4.05,2.18-2.7,3.27-6.84,3.27-12.42s-1.1-9.29-3.31-11.15c-2.21-1.86-5.49-2.85-9.85-2.96h-12.9v30.59Z"/>
      <path class="cls-1" d="M501.46,61.43h-1.04L526.46.43l.96-.43,21.96,61.43h-7.41l-6.8-19.17h-25.44l-8.28,19.17ZM523.76,9.85l-13.68,31.54h24.83l-11.15-31.54Z"/>
      <path class="cls-1" d="M560.45,1.13c6.74-.47,12.69-.7,17.86-.7,14.35,0,21.52,4.79,21.52,14.38,0,4.07-.99,7.7-2.96,10.89-1.97,3.2-5.37,5.32-10.19,6.36l17.43,29.36h-8.1l-17.08-28.84h-11.24v28.84h-7.23V1.13ZM578.31,1.31c-3.37,0-6.91.2-10.63.61v29.8h12.9c8.19-.35,12.29-5.92,12.29-16.73,0-4.42-1.22-7.8-3.66-10.15-2.44-2.35-6.07-3.53-10.89-3.53Z"/>
    </g>
  </g>
</svg>