<svg xmlns="http://www.w3.org/2000/svg" viewBox="0 0 13.27 121.89"><defs><style>.cls-1{fill:#a6607c;}</style></defs><g id="Lag_2" data-name="Lag 2"><g id="Lag_1-2" data-name="Lag 1"><path class="cls-1" d="M0,0H4.87V10.14a2.79,2.79,0,0,1,2.2-.92,3.63,3.63,0,0,1,2.26.83A5.65,5.65,0,0,1,11,12.84a20.86,20.86,0,0,1,1,6.73v6.32q0,8-2.54,11.79a8,8,0,0,1-7,3.85H0ZM4.87,14.4V35.7a2.72,2.72,0,0,0,1.57-1.33,8.84,8.84,0,0,0,.72-4.1V19.92c0-2.68-.2-4.38-.59-5.09a1.15,1.15,0,0,0-1.06-.66A1,1,0,0,0,4.87,14.4Z"/><path class="cls-1" d="M7.85,78.1c-1.06,1.82-2.16,2.72-3.29,2.72a3.24,3.24,0,0,1-2.81-1.93Q0,75.86,0,66.61V62.76q0-7.51,3.18-11.52a8,8,0,0,1,6.58-3.05H12v24a10.67,10.67,0,0,0,.31,3.12,3.53,3.53,0,0,0,.93,1.44l-2.81,4.11A3.28,3.28,0,0,1,9,80,6.34,6.34,0,0,1,7.85,78.1ZM7.16,54.33a3.8,3.8,0,0,0-1.73,2.12,20.18,20.18,0,0,0-.56,6v5.86q0,5.58.74,7.21c.22.46.49.69.8.69a.89.89,0,0,0,.75-.33Z"/><path class="cls-1" d="M6,94.2a5.37,5.37,0,0,0,.56-1.27,5.66,5.66,0,0,1,1.84-2.86,3.67,3.67,0,0,1,2.06-.48v6a5.2,5.2,0,0,0-2.93,1.88A6.1,6.1,0,0,0,6,100.93v21H1.1V95.61A3.12,3.12,0,0,0,0,93.14l2.94-3.55A4.39,4.39,0,0,1,5,91,7.59,7.59,0,0,1,6,94.2Z"/></g></g></svg>