<svg xmlns="http://www.w3.org/2000/svg" viewBox="0 0 30.57 126.09"><defs><style>.cls-1{fill:#806543;}</style></defs><g id="Lag_2" data-name="Lag 2"><g id="Lag_1-2" data-name="Lag 1"><path class="cls-1" d="M29.92,124.22a12.21,12.21,0,0,1-6.69,1.87q-9.35,0-16.29-13.78T0,63.49V49.31Q0,21,5.58,8.46,9.34,0,15.45,0,23,0,26.77,10.09t3.8,24.36q0,17.13-4.59,27.27T13.08,75.79q.13,15.45,4.36,24,3,6.1,7.21,6.1c1.26,0,3-.82,5.27-2.46ZM15.7,19.49a32,32,0,0,0-2.22,6.89,77.24,77.24,0,0,0-1,13.09v16c1.88-1.24,3.33-3.41,4.35-6.49s1.54-7.78,1.54-14.08Q18.39,24.61,15.7,19.49Z"/></g></g></svg>