<svg xmlns="http://www.w3.org/2000/svg" viewBox="0 0 30.42 148.63"><defs><style>.cls-1{fill:#806543;}</style></defs><g id="Lag_2" data-name="Lag 2"><g id="Lag_1-2" data-name="Lag 1"><path class="cls-1" d="M30.42,0V122.1q0,12.14-4.53,19.33T14,148.63a12.68,12.68,0,0,1-5.53-1.23,38,38,0,0,1-6.88-4.82l3.87-16.33q4.1,3.74,7,3.74a4.72,4.72,0,0,0,4.2-2.17A10.36,10.36,0,0,0,18.11,122v-5.32q-3,6.21-6.49,6.21-4.11,0-6.87-7.49Q0,102.59,0,67.21,0,41.49,3,27.5T11.54,6.75Q17.11,0,24.83,0ZM18.11,22.29Q15.5,24.86,14,30.57t-1.46,19.5V77.55q0,18.63,1.53,23.35c.59,1.77,1.38,2.66,2.35,2.66a1.68,1.68,0,0,0,1.66-.89Z"/></g></g></svg>