<svg version="1.1" xmlns="http://www.w3.org/2000/svg" xmlns:xlink="http://www.w3.org/1999/xlink" x="0px" y="0px" width="209.2px"
	 height="116.3px" viewBox="0 0 209.2 116.3"
	 xml:space="preserve">
    <style type="text/css">
        .st0{fill:#a6607c;}
        .st1{fill:#806543;}
    </style>
    <g>
        <path 
            class="d st1" d="M11.2,0h7.6v80.7c0,4.4,0.6,7.5,1.8,9.4l-4.4,9.9c-2-0.9-3.4-3.2-4.1-6.8c-1.2,2.9-2.1,4.7-2.8,5.5
            c-0.7,0.8-1.4,1.2-2.1,1.2c-1.8,0-3.3-1.5-4.5-4.5C0.9,91,0,82.8,0,70.9V57.3c0-13,1.3-22.5,3.9-28.5c1.8-4.2,4.2-6.4,7.2-6.7V0z
            M11.2,36c-1,0.4-1.7,1.5-2.2,3.2c-0.9,2.9-1.4,7.7-1.4,14.2v15.8c0,9.4,0.4,15.3,1.1,17.7c0.3,1.1,0.8,1.6,1.3,1.6
            c0.3,0,0.5-0.1,0.8-0.3c0.2-0.2,0.4-0.5,0.5-0.7V36z"
        />
    </g>
    <g>
        <animateTransform
            attributeName="transform"
            attributeType="XML"
            type="translate"
            from="0 0"
            to="-200 0"
            dur="1.5s"
            repeatCount="indefinite" 
            fill="freeze"  begin="1" 
        />
        <path class="e1 st1" d="M41.5,99.8c-1.2,0.8-2.6,1.2-4.2,1.2c-3.9,0-7.4-2.9-10.3-8.7c-2.9-5.8-4.4-16.1-4.4-30.9v-9
        c0-12,1.2-20.6,3.5-25.9c1.6-3.6,3.7-5.4,6.2-5.4c3.2,0,5.6,2.1,7.2,6.4c1.6,4.3,2.4,9.4,2.4,15.4c0,7.2-1,13-2.9,17.3
        c-1.9,4.3-4.7,7.3-8.2,8.9c0.1,6.5,1,11.6,2.8,15.2c1.3,2.6,2.8,3.9,4.6,3.9c0.8,0,1.9-0.5,3.3-1.6V99.8z M32.5,33.4
        c-0.7,1.7-1.2,3.1-1.4,4.4c-0.4,2.4-0.6,5.1-0.6,8.3v10.2c1.2-0.8,2.1-2.2,2.8-4.1c0.7-2,1-4.9,1-8.9C34.2,38.8,33.7,35.6,32.5,33.4
        z"/>
    </g>
    <g>
        <animateTransform
            attributeName="transform"
            attributeType="XML"
            type="translate"
            from="0 0"
            to="-20 0"
            dur="1.5s"
            repeatCount="indefinite"
            fill="freeze"  begin="1"
        />
        <path class="s st1" d="M47.4,87.2c1,1.5,2,2.3,3.2,2.3c1.1,0,2-0.6,2.7-1.7c0.7-1.1,1-2.7,1-4.7c0-3.7-1-10.2-3.1-19.4
            c-2.5-11.1-3.7-19.5-3.7-25.2c0-6.2,0.7-10.6,2.2-13.4c1.5-2.8,3.4-4.2,5.7-4.2c1.4,0,3.2,0.9,5.2,2.6v10.9c-1.1-1.4-2-2.1-2.9-2.1
            c-0.8,0-1.6,0.5-2.2,1.6c-0.6,1-0.9,2.5-0.9,4.4c0,3.5,1,9.8,2.9,18.7c2.5,11.6,3.8,20.4,3.8,26.3c0,6.1-0.8,10.6-2.4,13.4
            c-1.6,2.9-3.8,4.3-6.5,4.3c-1.7,0-3.4-0.7-5.1-2.1V87.2z"/>
    </g>
    <g>
        <animateTransform
            attributeName="transform"
            attributeType="XML"
            type="translate"
            from="0 0"
            to="-350 0"
            dur="1.5s"
            repeatCount="indefinite"
            fill="freeze"  begin="1"
        />
        <path class="i st1" d="M71.6,0c1.3,0,2.3,0.7,3.2,2c0.9,1.3,1.3,2.9,1.3,4.8c0,1.9-0.4,3.5-1.3,4.8c-0.9,1.3-1.9,2-3.2,2
            c-1.2,0-2.3-0.7-3.1-2c-0.9-1.3-1.3-2.9-1.3-4.7c0-1.9,0.4-3.5,1.3-4.8C69.4,0.7,70.5,0,71.6,0z M67.8,23.6h7.6V100h-7.6V23.6z"/>
    </g>
    <g>
        <animateTransform
            attributeName="transform"
            attributeType="XML"
            type="translate"
            from="0 0"
            to="-35 0"
            dur="1.5s"
            repeatCount="indefinite"
            fill="freeze"  begin="1"
        />
        <path class="g st1" d="M100,21.3v78c0,5.2-1,9.3-2.9,12.4c-1.9,3.1-4.5,4.6-7.6,4.6c-1.3,0-2.4-0.3-3.5-0.8c-1.1-0.5-2.6-1.6-4.4-3.1
            l2.5-10.4c1.7,1.6,3.2,2.4,4.5,2.4c1.2,0,2.1-0.5,2.7-1.4c0.6-0.9,0.9-2.2,0.9-3.7v-3.4c-1.3,2.6-2.7,4-4.1,4
            c-1.8,0-3.2-1.6-4.4-4.8c-2-5.5-3-15.7-3-30.8c0-11,0.6-19.4,1.9-25.4c1.3-6,3.1-10.4,5.5-13.3c2.4-2.9,5.2-4.3,8.5-4.3H100z
            M92.2,35.6c-1.1,1.1-2,2.9-2.6,5.3c-0.6,2.4-0.9,6.6-0.9,12.5v17.6c0,7.9,0.3,12.9,1,14.9c0.4,1.1,0.9,1.7,1.5,1.7
            c0.5,0,0.9-0.2,1.1-0.6V35.6z"/>
    </g>
    <g>
        <animateTransform
            attributeName="transform"
            attributeType="XML"
            type="translate"
            from="0 0"
            to="-35 0"
            dur="1.5s"
            repeatCount="indefinite"
            fill="freeze"  begin="1"
        />
        <path class="n st1" d="M110.5,21c1.6,0.8,2.9,2.6,3.9,5.6c1.2-2.3,2.2-3.8,3-4.5c0.8-0.7,1.7-1,2.7-1c1.8,0,3.3,1.1,4.5,3.4
            c1.2,2.3,1.8,5.8,1.8,10.4V101h-7.9V36c0-1-0.2-1.7-0.5-2.3c-0.4-0.6-0.8-0.9-1.3-0.9c-0.3,0-0.6,0.2-0.9,0.5
            c-0.3,0.3-0.6,0.9-0.9,1.6V101h-7.9V36c0-3.1-0.5-5.2-1.6-6.4L110.5,21z"/>
    </g>
    <g>
        <animateTransform
            attributeName="transform"
            attributeType="XML"
            type="translate"
            from="0 0"
            to="-300 0"
            dur="1.5s"
            repeatCount="indefinite"
            fill="freeze" begin="1"
        />
        <path class="e2 st1" d="M150.3,99.8c-1.2,0.8-2.6,1.2-4.2,1.2c-4,0-7.4-2.9-10.3-8.7c-2.9-5.8-4.4-16.2-4.4-31v-9
            c0-12,1.2-20.6,3.5-25.9c1.6-3.6,3.7-5.4,6.3-5.4c3.2,0,5.6,2.1,7.2,6.4c1.6,4.3,2.4,9.4,2.4,15.5c0,7.2-1,13-2.9,17.3
            c-1.9,4.3-4.7,7.3-8.2,8.9c0.1,6.5,1,11.6,2.8,15.2c1.3,2.6,2.8,3.9,4.6,3.9c0.8,0,1.9-0.5,3.3-1.6V99.8z M141.3,33.4
            c-0.7,1.7-1.2,3.1-1.4,4.4c-0.4,2.4-0.6,5.1-0.6,8.3v10.2c1.2-0.8,2.1-2.2,2.8-4.1c0.7-2,1-4.9,1-8.9
            C143,38.8,142.5,35.5,141.3,33.4z"/>
    </g>

    <g>
        <animateTransform
            attributeName="transform"
            attributeType="XML"
            type="translate"
            from="0 0"
            to="-60 0"
            dur="1.5s"
            repeatCount="indefinite"
            fill="freeze"  begin="1"
        />
        <path class="r st1" d="M166,32.4c0.3-0.7,0.6-1.8,0.9-3.2c0.9-3.6,1.8-5.9,3-7.1c0.8-0.8,1.9-1.2,3.3-1.2v15c-2,0.8-3.6,2.4-4.7,4.7
            c-1.6,3.3-2.5,6.1-2.5,8.5V101h-7.9V35.9c0-2.5-0.6-4.6-1.8-6.1l4.8-8.8c1.6,0.9,2.7,2.1,3.4,3.6C165.2,26,165.7,28.6,166,32.4z"/>
    </g>
    <g>
        <animateTransform
            attributeName="transform"
            attributeType="XML"
            type="translate"
            from="0 0"
            to="-60 0"
            dur="1.5s"
            repeatCount="indefinite"
            fill="freeze"  begin="1"
        />
        <path class="s2 st1" d="M178.8,87.2c1,1.5,2,2.3,3.2,2.3c1.1,0,2-0.6,2.7-1.7c0.7-1.1,1-2.7,1-4.7c0-3.7-1-10.2-3.1-19.4
            c-2.5-11.1-3.7-19.5-3.7-25.2c0-6.2,0.7-10.6,2.2-13.4c1.5-2.8,3.4-4.2,5.7-4.2c1.4,0,3.2,0.9,5.2,2.6v10.9c-1.1-1.4-2-2.1-2.9-2.1
            c-0.8,0-1.6,0.5-2.2,1.6c-0.6,1-0.9,2.5-0.9,4.4c0,3.5,1,9.8,2.9,18.7c2.5,11.6,3.8,20.3,3.8,26.3c0,6.1-0.8,10.5-2.4,13.4
            c-1.6,2.9-3.8,4.3-6.5,4.3c-1.7,0-3.4-0.7-5.1-2.1V87.2z"
        />
    </g>
    <g id="bar">
        <animateTransform
            attributeName="transform"
            attributeType="XML"
            type="translate"
            from="-60 -100"
            to="-60 0"
            dur="1.5s"
            repeatCount="indefinite"
            fill="freeze"  begin="1"
        />
        <path class="_b st0" d="M200.5,21h3.2v6.7c0.4-0.4,0.8-0.6,1.4-0.6c0.5,0,1,0.2,1.5,0.5c0.5,0.4,0.8,1,1.1,1.8
            c0.4,1.3,0.7,2.7,0.7,4.4V38c0,3.5-0.6,6.1-1.7,7.7c-1.1,1.7-2.7,2.5-4.6,2.5h-1.6V21z M203.7,30.4v14c0.5-0.2,0.8-0.4,1-0.9
            c0.3-0.6,0.5-1.5,0.5-2.7v-6.8c0-1.8-0.1-2.9-0.4-3.3c-0.2-0.3-0.4-0.4-0.7-0.4C204,30.3,203.8,30.3,203.7,30.4z"/>
        <path class="_a st0" d="M205.7,72.3c-0.7,1.2-1.4,1.8-2.2,1.8c-0.7,0-1.4-0.4-1.8-1.3c-0.8-1.3-1.1-4-1.1-8.1v-2.5
            c0-3.3,0.7-5.8,2.1-7.6c1.1-1.3,2.5-2,4.3-2h1.5v15.7c0,1,0.1,1.7,0.2,2c0.1,0.4,0.3,0.7,0.6,0.9l-1.8,2.7
            c-0.4-0.1-0.7-0.3-0.9-0.5C206.2,73.3,205.9,72.9,205.7,72.3z M205.2,56.7c-0.5,0.3-0.9,0.7-1.1,1.4s-0.4,2-0.4,3.9v3.8
            c0,2.4,0.2,4,0.5,4.7c0.1,0.3,0.3,0.5,0.5,0.5c0.2,0,0.4-0.1,0.5-0.2V56.7z"/>
        <path class="_r st0" d="M204.4,82.8c0.1-0.2,0.2-0.5,0.4-0.8c0.3-0.9,0.7-1.6,1.2-1.9c0.3-0.2,0.8-0.3,1.4-0.3v4
            c-0.8,0.2-1.5,0.6-1.9,1.2c-0.7,0.9-1,1.6-1,2.2V101h-3.2V83.8c0-0.7-0.2-1.2-0.7-1.6l1.9-2.3c0.6,0.2,1.1,0.6,1.4,0.9
            C204.1,81.1,204.3,81.8,204.4,82.8z"/>
    </g>
</svg>
