<svg xmlns="http://www.w3.org/2000/svg" viewBox="0 0 22.11 126.34"><defs><style>.cls-1{fill:#806543;}</style></defs><g id="Lag_2" data-name="Lag 2"><g id="Lag_1-2" data-name="Lag 1"><path class="cls-1" d="M0,104.55q2.25,3.65,5.09,3.65a4.78,4.78,0,0,0,4.19-2.62,14.06,14.06,0,0,0,1.61-7.35q0-8.78-4.9-30.67Q.13,41.22.13,27.71q0-14.59,3.51-21.15T12.7,0q3.41,0,8.18,4V21.21C19.21,19,17.7,18,16.37,18s-2.48.82-3.45,2.47a14,14,0,0,0-1.45,7q0,8.38,4.64,29.49,6,27.42,6,41.52,0,14.4-3.84,21.16T8.06,126.34A12.5,12.5,0,0,1,0,123Z"/></g></g></svg>