<?xml version="1.0" encoding="utf-8"?>
<!-- Generator: Adobe Illustrator 25.0.0, SVG Export Plug-In . SVG Version: 6.00 Build 0)  -->
<svg version="1.1" id="Lag_1" xmlns="http://www.w3.org/2000/svg" xmlns:xlink="http://www.w3.org/1999/xlink" x="0px" y="0px"
	 viewBox="0 0 209.4 776.1" style="enable-background:new 0 0 209.4 776.1;" xml:space="preserve">
<style type="text/css">
	.st0{fill:#806543; opacity: 0.3; stroke:none;stroke-width:0;}
	.st1{fill:#A6607C;}
	 .top {
        fill: #a6607c;
				animation: topBubble 5s infinite;
      }

			@keyframes topBubble {
				0% {
					opacity: 0.4;
					transform: translateX(0px) translateY(50px)
				}
				50% {
					opacity: 0.2;
					transform: translateX(5px) translateY(-25px)

				}
				100% {
					opacity: 0;
					transform: translateX(-5px) translateY(-55px)
				}
			}
			.middle {
        fill: #a6607c;
				animation: topBubble 4s infinite;
      }

			@keyframes topBubble {
				0% {
					opacity: 0.4;
					transform: translateX(0px) translateY(50px)
				}
				50% {
					opacity: 0.2;
					transform: translateX(5px) translateY(-25px)

				}
				100% {
					opacity: 0;
					transform: translateX(-5px) translateY(-55px)
				}
			}
			.bottom {
        fill: #a6607c;
				animation: topBubble 7s infinite;
      }

			@keyframes topBubble {
				0% {
					opacity: 0.4;
					transform: translateX(0px) translateY(50px)
				}
				50% {
					opacity: 0.2;
					transform: translateX(5px) translateY(-25px)

				}
				100% {
					opacity: 0;
					transform: translateX(-5px) translateY(-55px)
				}
			}
</style>
<g id="graphics">
	<path id="martiniglass" class="st0" d="M4.8,464.8c-1.9,0-3.4,1.5-3.3,3.4c0,0.9,0.4,1.7,1,2.4l95.1,95v190.8l-55.6,11.5
		c-1.8,0.3-3.1,2.1-2.7,3.9c0.3,1.6,1.7,2.8,3.3,2.8h124.4c1.9,0,3.4-1.5,3.3-3.4c0-1.6-1.2-3-2.8-3.3l-55.6-11.5V565.6l95-95
		c1.3-1.3,1.3-3.4,0-4.7c-0.6-0.6-1.5-1-2.4-1L4.8,464.8L4.8,464.8z"/>
</g>
<path class="top" d="M174,188.2c-5.4,13.1-20.4,19.4-33.5,14c-13.1-5.4-19.4-20.4-14-33.5c5.4-13.1,20.4-19.4,33.5-14c0,0,0,0,0.1,0
	C173.1,160.1,179.4,175.1,174,188.2z"/>
<path class=" bottom st1" d="M154.1,377.4c-3.8,27.5-29.2,46.8-56.7,43c-27.5-3.8-46.8-29.2-43-56.7c3.8-27.5,29.2-46.8,56.7-43c0,0,0,0,0,0
	C138.6,324.4,157.9,349.8,154.1,377.4z"/>
<path class="middle st1" d="M103.6,256.2c-2.7,19.4-20.6,33-40,30.3s-33-20.6-30.3-40c2.7-19.4,20.6-32.9,40-30.3
	C92.7,218.9,106.3,236.8,103.6,256.2C103.6,256.2,103.6,256.2,103.6,256.2z"/>
</svg>
