<svg xmlns="http://www.w3.org/2000/svg" viewBox="0 0 81.49 828.22"><defs><style>.cls-1{fill:#A6607C;}</style></defs><g id="Lag_2" data-name="Lag 2"><g id="Lag_1-2" data-name="Lag 1"><path class="cls-1" d="M4.18,0H21.76q23.93,0,38,15t14,41.83q0,28.33-18.35,44.54,10.13,7.22,14.94,16.19,6.94,12.8,7,30.75t-6.7,31.76q-5.07,10.38-16.89,18.29t-28.41,7.91H4.18ZM32,29.74v57.7q13.8-6.31,13.8-28.66,0-13.38-5.19-22Q36.83,30.75,32,29.74Zm0,87.69v59.09q7-2.15,11.65-9.41t4.68-19A38.61,38.61,0,0,0,44,129.68,28.66,28.66,0,0,0,32,117.43Z"/><path class="cls-1" d="M23.41,309.34H53.65l21.77,207.9H47.33L46,480.16H30.4l-2.77,37.08H0ZM39,343.5H36.75q-1.28,43.28-1.91,55.42l-2.93,54.29H44.08L42,411.33Z"/><path class="cls-1" d="M4.18,622H19.11Q45.3,622,59.92,637t14.61,42.14q0,15.3-6,27.2a52.84,52.84,0,0,1-13,16.2A57.16,57.16,0,0,1,65,736q6.33,13.41,10.06,34.42t6.39,57.83H53.4q-1.77-46.07-8.35-67.57-4.94-16.2-13-22.78v90.35H4.18ZM34.29,651.7V711q6.7-2.89,10.57-10.79t3.86-18.88q0-11.49-3.8-19.13T34.29,651.7Z"/></g></g></svg>