<?xml version="1.0" encoding="utf-8"?>
<!-- Generator: Adobe Illustrator 25.0.0, SVG Export Plug-In . SVG Version: 6.00 Build 0)  -->
<svg version="1.1" id="Lag_1" xmlns="http://www.w3.org/2000/svg" xmlns:xlink="http://www.w3.org/1999/xlink" x="0px" y="0px"
	 viewBox="0 0 14 120" style="enable-background:new 0 0 14 120;" xml:space="preserve">
<style type="text/css">
	.st0{fill:#a6607c;}
</style>
<g>
	<path class="st0" d="M3.8,3C4.2,2.3,4.6,1.9,5,1.6c0.4-0.2,0.8-0.4,1.3-0.4c1,0,1.8,0.6,2.4,1.7c0.6-0.8,1.1-1.2,1.4-1.4
		c0.3-0.2,0.7-0.3,1.2-0.3c0.8,0,1.4,0.3,1.8,0.9C13.7,2.9,14,4,14,5.5v18.9h-3.4V5.9c0-0.4-0.1-0.7-0.2-0.9S10,4.7,9.8,4.7
		c-0.1,0-0.3,0.1-0.4,0.2C9.3,5,9.1,5.2,9,5.5v18.9H5.6V5.9c0-0.4-0.1-0.7-0.2-0.9C5.2,4.8,5.1,4.7,4.9,4.7c-0.1,0-0.3,0.1-0.4,0.2
		C4.3,5,4.1,5.2,4,5.5v18.9H0.6V5.1C0.6,4.5,0.4,4,0,3.7l2-2.4C2.9,1.6,3.5,2.2,3.8,3z"/>
	<path class="st0" d="M11.3,55.6c-0.5,0.2-1.2,0.3-1.8,0.3c-1.7,0-3.2-0.8-4.5-2.5c-1.3-1.7-1.9-4.7-1.9-9v-2.6c0-3.5,0.5-6,1.5-7.5
		c0.7-1,1.6-1.6,2.7-1.6c1.4,0,2.4,0.6,3.1,1.9c0.7,1.2,1,2.7,1,4.5c0,2.1-0.4,3.8-1.3,5c-0.8,1.2-2,2.1-3.6,2.6
		c0,1.9,0.4,3.4,1.2,4.4c0.6,0.8,1.2,1.1,2,1.1c0.3,0,0.8-0.2,1.5-0.5V55.6z M7.4,36.3c-0.3,0.5-0.5,0.9-0.6,1.3
		C6.6,38.2,6.5,39,6.5,40v3c0.5-0.2,0.9-0.6,1.2-1.2c0.3-0.6,0.4-1.4,0.4-2.6C8.1,37.9,7.9,36.9,7.4,36.3z"/>
	<path class="st0" d="M4.5,64.1c0.7,0.2,1.3,0.8,1.7,1.6c0.5-0.7,1-1.1,1.3-1.3c0.3-0.2,0.7-0.3,1.2-0.3c0.8,0,1.4,0.3,1.9,1
		c0.5,0.7,0.8,1.7,0.8,3l0,19l-3.4,0l0-18.7c0-0.3-0.1-0.5-0.2-0.7c-0.2-0.2-0.3-0.3-0.6-0.3c-0.1,0-0.3,0-0.4,0.1
		c-0.1,0.1-0.3,0.2-0.4,0.5l0,19l-3.4,0l0-18.7c0-0.9-0.2-1.5-0.7-1.8L4.5,64.1z"/>
	<path class="st0" d="M3.1,95.7l3.4,0l0,18.6c0,0.3,0.1,0.6,0.2,0.7c0.1,0.2,0.3,0.2,0.5,0.2c0.2,0,0.4-0.1,0.6-0.3
		c0.2-0.2,0.3-0.4,0.3-0.6l0-18.7l3.4,0l0,19.1c0,0.5,0.2,0.9,0.7,1.4l-2.1,2.5c-0.5-0.2-0.9-0.4-1.1-0.6c-0.3-0.2-0.5-0.6-0.6-1
		c-0.5,0.7-0.9,1.1-1.3,1.3c-0.4,0.2-0.8,0.3-1.3,0.3c-0.8,0-1.3-0.2-1.7-0.7c-0.6-0.8-0.9-1.7-0.9-2.7L3.1,95.7z"/>
</g>
</svg>
